<svg width="249" height="248" viewBox="0 0 249 248" fill="none" xmlns="http://www.w3.org/2000/svg">
<path d="M92.4445 101.724C92.676 95.4904 93.7565 89.2958 93.6021 83.0623C93.0233 60.6345 73.9357 40.2456 51.7997 38.3756C29.6637 36.5055 7.48907 53.388 3.18021 75.3872C-1.12866 97.3865 12.9941 121.515 34.1526 128.333C43.7993 131.437 54.192 131.242 64.0446 133.593C85.6661 138.749 103.622 157.125 108.432 179.02C109.77 185.124 110.207 191.552 113.024 197.123C119.97 210.85 139.984 213.993 150.235 202.448C153.772 198.461 156.216 193.643 159.213 189.24C171.393 171.306 193.414 160.709 214.881 162.436C220.36 162.878 225.904 164.059 231.28 162.969C242.985 160.592 250.458 145.969 245.609 134.957C240.76 123.944 224.99 119.775 215.408 126.97C210.649 130.541 207.742 136.008 204.244 140.839C188.809 162.202 159.033 171.696 134.247 163.137C109.461 154.579 91.6599 128.671 92.4188 102.243C92.4188 102.075 92.4188 101.906 92.4316 101.724H92.4445Z" fill="white"/>
</svg>
