<svg width="249" height="172" viewBox="0 0 249 172" fill="none" xmlns="http://www.w3.org/2000/svg">
<g clip-path="url(#clip0_2001_411)">
<path d="M91.7453 63.49C91.9768 57.2565 93.0572 51.0619 92.9029 44.8283C92.3241 22.4006 73.2364 2.01167 51.1004 0.141604C28.9644 -1.72846 6.78986 15.1541 2.48099 37.1533C-1.82788 59.1525 12.2949 83.2815 33.4534 90.0995C43.1001 93.2033 53.4928 93.0085 63.3453 95.359C84.9669 100.515 102.923 118.891 107.733 140.786C109.071 146.89 109.508 153.318 112.325 158.889C119.271 172.616 139.284 175.759 149.536 164.214C153.073 160.227 155.517 155.409 158.513 151.006C170.694 133.072 192.714 122.475 214.181 124.202C219.661 124.644 225.204 125.825 230.581 124.735C242.286 122.358 249.759 107.735 244.909 96.7226C240.06 85.71 224.291 81.5413 214.709 88.7359C209.95 92.3072 207.043 97.7745 203.544 102.606C188.11 123.968 158.333 133.462 133.548 124.903C108.762 116.345 90.9607 90.4371 91.7196 64.0095C91.7196 63.8407 91.7196 63.6718 91.7324 63.49H91.7453Z" fill="white"/>
</g>
<defs>
<clipPath id="clip0_2001_411">
<rect width="247.762" height="171.292" fill="white" transform="translate(0.875977)"/>
</clipPath>
</defs>
</svg>
